# xmcd
#
# Track frame offsets:
#	150
#	15104
#	30787
#	45789
#	67317
#	83932
#	100297
#	118317
#	133979
#	149112
#	162879
#
# Disc length: 2399 seconds
# Revision: 0
# Processed by: cddbd v1.5.2PL0 Copyright (c) Steve Scherf et al.
# Submitted via: dBpowerAMP V12.0
#
DISCID=92095d0b
DTITLE=Various Artist - Writing Letters
DYEAR=2010
DGENRE=Country
TTITLE0=Ange Boxall with Adam and Shannon Wright - Fool for Now
TTITLE1=Ange Boxall with Jim Lauderdale - Loving Between the Lines
TTITLE2=Ange Boxall - Electric Blue
TTITLE3=Ange Boxall - The Salt Plains
TTITLE4=Ange Boxall - Brigitte and Tuesday
TTITLE5=Ange Boxall - Wagon
TTITLE6=Ange Boxall with J.D. Souther - Lucky Day
TTITLE7=Ange Boxall - Mystery Man
TTITLE8=Ange Boxall - Being Home on a Sunday
TTITLE9=Ange Boxall with Steve Arlene - Gonna Give it Up
TTITLE10=Ange Boxall - Writing Letters In My Sleep
EXTD=
EXTT0=
EXTT1=
EXTT2=
EXTT3=
EXTT4=
EXTT5=
EXTT6=
EXTT7=
EXTT8=
EXTT9=
EXTT10=
PLAYORDER=
